<mxfile host="www.draw.io" modified="2019-10-30T09:46:19.083Z" agent="Mozilla/5.0 (Windows NT 6.3; Win64; x64; rv:70.0) Gecko/20100101 Firefox/70.0" etag="TQreYerXwz8DS-hstOt2" version="12.1.8" type="github" pages="1">
  <diagram name="Page-1" id="e7e014a7-5840-1c2e-5031-d8a46d1fe8dd">
    <mxGraphModel dx="1408" dy="794" grid="1" gridSize="10" guides="1" tooltips="1" connect="1" arrows="1" fold="1" page="1" pageScale="1" pageWidth="1169" pageHeight="826" background="#ffffff" math="0" shadow="0">
      <root>
        <mxCell id="0"/>
        <mxCell id="1" parent="0"/>
        <mxCell id="2" value="User" style="swimlane;whiteSpace=wrap;startSize=23;" parent="1" vertex="1">
          <mxGeometry x="160" y="40" width="440" height="712" as="geometry"/>
        </mxCell>
        <mxCell id="mlaz-VWcCHf4LHaq8jaL-57" style="edgeStyle=orthogonalEdgeStyle;rounded=0;orthogonalLoop=1;jettySize=auto;html=1;exitX=0.75;exitY=1;exitDx=0;exitDy=0;entryX=0.5;entryY=0;entryDx=0;entryDy=0;" parent="2" source="7" target="mlaz-VWcCHf4LHaq8jaL-50" edge="1">
          <mxGeometry relative="1" as="geometry"/>
        </mxCell>
        <mxCell id="7" value="Login" style="fillColor=#dae8fc;strokeColor=#6c8ebf;" parent="2" vertex="1">
          <mxGeometry x="30" y="40" width="110" height="50" as="geometry"/>
        </mxCell>
        <mxCell id="8" value="Settings" style="fillColor=#dae8fc;strokeColor=#6c8ebf;" parent="2" vertex="1">
          <mxGeometry x="240" y="410" width="110" height="50" as="geometry"/>
        </mxCell>
        <mxCell id="10" value="Story" style="fillColor=#dae8fc;strokeColor=#6c8ebf;" parent="2" vertex="1">
          <mxGeometry x="240" y="315" width="110" height="50" as="geometry"/>
        </mxCell>
        <mxCell id="mlaz-VWcCHf4LHaq8jaL-65" style="edgeStyle=orthogonalEdgeStyle;rounded=0;orthogonalLoop=1;jettySize=auto;html=1;exitX=1;exitY=0.5;exitDx=0;exitDy=0;entryX=0;entryY=0.5;entryDx=0;entryDy=0;" parent="2" source="mlaz-VWcCHf4LHaq8jaL-41" target="10" edge="1">
          <mxGeometry relative="1" as="geometry"/>
        </mxCell>
        <mxCell id="mlaz-VWcCHf4LHaq8jaL-66" style="edgeStyle=orthogonalEdgeStyle;rounded=0;orthogonalLoop=1;jettySize=auto;html=1;exitX=0.5;exitY=1;exitDx=0;exitDy=0;entryX=0;entryY=0.5;entryDx=0;entryDy=0;" parent="2" source="mlaz-VWcCHf4LHaq8jaL-41" target="8" edge="1">
          <mxGeometry relative="1" as="geometry"/>
        </mxCell>
        <mxCell id="mlaz-VWcCHf4LHaq8jaL-41" value="choose" style="rhombus;whiteSpace=wrap;html=1;fillColor=#ffe6cc;strokeColor=#d79b00;" parent="2" vertex="1">
          <mxGeometry x="70" y="300" width="80" height="80" as="geometry"/>
        </mxCell>
        <mxCell id="mlaz-VWcCHf4LHaq8jaL-67" style="edgeStyle=orthogonalEdgeStyle;rounded=0;orthogonalLoop=1;jettySize=auto;html=1;exitX=0.25;exitY=1;exitDx=0;exitDy=0;entryX=0.5;entryY=0;entryDx=0;entryDy=0;" parent="2" source="mlaz-VWcCHf4LHaq8jaL-42" target="mlaz-VWcCHf4LHaq8jaL-41" edge="1">
          <mxGeometry relative="1" as="geometry"/>
        </mxCell>
        <mxCell id="mlaz-VWcCHf4LHaq8jaL-42" value="Main menu" style="fillColor=#dae8fc;strokeColor=#6c8ebf;" parent="2" vertex="1">
          <mxGeometry x="80" y="230" width="110" height="50" as="geometry"/>
        </mxCell>
        <mxCell id="mlaz-VWcCHf4LHaq8jaL-58" style="edgeStyle=orthogonalEdgeStyle;rounded=0;orthogonalLoop=1;jettySize=auto;html=1;exitX=1;exitY=0;exitDx=0;exitDy=0;entryX=0;entryY=0.5;entryDx=0;entryDy=0;" parent="2" source="mlaz-VWcCHf4LHaq8jaL-50" target="15" edge="1">
          <mxGeometry relative="1" as="geometry"/>
        </mxCell>
        <mxCell id="mlaz-VWcCHf4LHaq8jaL-59" style="edgeStyle=orthogonalEdgeStyle;rounded=0;orthogonalLoop=1;jettySize=auto;html=1;exitX=1;exitY=0.5;exitDx=0;exitDy=0;entryX=0;entryY=0.5;entryDx=0;entryDy=0;" parent="2" source="mlaz-VWcCHf4LHaq8jaL-50" target="mlaz-VWcCHf4LHaq8jaL-43" edge="1">
          <mxGeometry relative="1" as="geometry"/>
        </mxCell>
        <mxCell id="mlaz-VWcCHf4LHaq8jaL-50" value="choose" style="rhombus;whiteSpace=wrap;html=1;fillColor=#ffe6cc;strokeColor=#d79b00;" parent="2" vertex="1">
          <mxGeometry x="70" y="110" width="80" height="80" as="geometry"/>
        </mxCell>
        <mxCell id="15" value="using Guest-login" style="fillColor=#dae8fc;strokeColor=#6c8ebf;" parent="2" vertex="1">
          <mxGeometry x="240" y="40" width="120" height="50" as="geometry"/>
        </mxCell>
        <mxCell id="mlaz-VWcCHf4LHaq8jaL-43" value="using Google-login" style="fillColor=#dae8fc;strokeColor=#6c8ebf;" parent="2" vertex="1">
          <mxGeometry x="240" y="120" width="120" height="50" as="geometry"/>
        </mxCell>
        <mxCell id="mlaz-VWcCHf4LHaq8jaL-71" value="" style="ellipse;html=1;shape=startState;fillColor=#000000;strokeColor=#ff0000;" parent="2" vertex="1">
          <mxGeometry x="15" y="180" width="30" height="30" as="geometry"/>
        </mxCell>
        <mxCell id="mlaz-VWcCHf4LHaq8jaL-72" value="" style="edgeStyle=orthogonalEdgeStyle;html=1;verticalAlign=bottom;endArrow=open;endSize=8;strokeColor=#000000;entryX=0.25;entryY=1;entryDx=0;entryDy=0;" parent="2" source="mlaz-VWcCHf4LHaq8jaL-71" target="7" edge="1">
          <mxGeometry relative="1" as="geometry">
            <mxPoint x="43" y="110" as="targetPoint"/>
          </mxGeometry>
        </mxCell>
        <mxCell id="mlaz-VWcCHf4LHaq8jaL-74" value="stop application" style="fillColor=#dae8fc;strokeColor=#6c8ebf;" parent="2" vertex="1">
          <mxGeometry x="290" y="590" width="110" height="50" as="geometry"/>
        </mxCell>
        <mxCell id="3" value="App/Server" style="swimlane;whiteSpace=wrap" parent="1" vertex="1">
          <mxGeometry x="600" y="40" width="480" height="710" as="geometry"/>
        </mxCell>
        <mxCell id="16" value="go to main screen" style="fillColor=#dae8fc;strokeColor=#6c8ebf;" parent="3" vertex="1">
          <mxGeometry x="40" y="230" width="110" height="50" as="geometry"/>
        </mxCell>
        <mxCell id="18" value="start the Game in &#xa;Storymode" style="fillColor=#dae8fc;strokeColor=#6c8ebf;" parent="3" vertex="1">
          <mxGeometry x="40" y="320" width="110" height="50" as="geometry"/>
        </mxCell>
        <mxCell id="mlaz-VWcCHf4LHaq8jaL-62" style="edgeStyle=orthogonalEdgeStyle;rounded=0;orthogonalLoop=1;jettySize=auto;html=1;exitX=0.25;exitY=1;exitDx=0;exitDy=0;entryX=0.25;entryY=0;entryDx=0;entryDy=0;" parent="3" source="mlaz-VWcCHf4LHaq8jaL-51" target="16" edge="1">
          <mxGeometry relative="1" as="geometry"/>
        </mxCell>
        <mxCell id="mlaz-VWcCHf4LHaq8jaL-51" value="login Guest" style="fillColor=#dae8fc;strokeColor=#6c8ebf;" parent="3" vertex="1">
          <mxGeometry x="40" y="40" width="120" height="50" as="geometry"/>
        </mxCell>
        <mxCell id="mlaz-VWcCHf4LHaq8jaL-63" style="edgeStyle=orthogonalEdgeStyle;rounded=0;orthogonalLoop=1;jettySize=auto;html=1;exitX=0.25;exitY=1;exitDx=0;exitDy=0;entryX=0.75;entryY=0;entryDx=0;entryDy=0;" parent="3" source="mlaz-VWcCHf4LHaq8jaL-52" target="16" edge="1">
          <mxGeometry relative="1" as="geometry"/>
        </mxCell>
        <mxCell id="mlaz-VWcCHf4LHaq8jaL-52" value="login Google" style="fillColor=#dae8fc;strokeColor=#6c8ebf;" parent="3" vertex="1">
          <mxGeometry x="100" y="120" width="120" height="50" as="geometry"/>
        </mxCell>
        <mxCell id="mlaz-VWcCHf4LHaq8jaL-55" style="edgeStyle=orthogonalEdgeStyle;rounded=0;orthogonalLoop=1;jettySize=auto;html=1;exitX=0;exitY=0.5;exitDx=0;exitDy=0;entryX=1;entryY=0.5;entryDx=0;entryDy=0;" parent="3" source="mlaz-VWcCHf4LHaq8jaL-53" target="mlaz-VWcCHf4LHaq8jaL-52" edge="1">
          <mxGeometry relative="1" as="geometry"/>
        </mxCell>
        <mxCell id="mlaz-VWcCHf4LHaq8jaL-53" value="use Google Data" style="fillColor=#dae8fc;strokeColor=#6c8ebf;" parent="3" vertex="1">
          <mxGeometry x="335" y="120" width="110" height="50" as="geometry"/>
        </mxCell>
        <mxCell id="mlaz-VWcCHf4LHaq8jaL-56" style="edgeStyle=orthogonalEdgeStyle;rounded=0;orthogonalLoop=1;jettySize=auto;html=1;exitX=0;exitY=0.5;exitDx=0;exitDy=0;entryX=1;entryY=0.5;entryDx=0;entryDy=0;" parent="3" source="mlaz-VWcCHf4LHaq8jaL-54" target="mlaz-VWcCHf4LHaq8jaL-51" edge="1">
          <mxGeometry relative="1" as="geometry"/>
        </mxCell>
        <mxCell id="mlaz-VWcCHf4LHaq8jaL-54" value="use local Data" style="fillColor=#dae8fc;strokeColor=#6c8ebf;" parent="3" vertex="1">
          <mxGeometry x="280" y="40" width="110" height="50" as="geometry"/>
        </mxCell>
        <mxCell id="mlaz-VWcCHf4LHaq8jaL-69" value="switch to Settings" style="fillColor=#dae8fc;strokeColor=#6c8ebf;" parent="3" vertex="1">
          <mxGeometry x="40" y="410" width="110" height="50" as="geometry"/>
        </mxCell>
        <mxCell id="mlaz-VWcCHf4LHaq8jaL-73" value="" style="ellipse;html=1;shape=endState;fillColor=#000000;strokeColor=#ff0000;" parent="3" vertex="1">
          <mxGeometry x="170" y="600" width="30" height="30" as="geometry"/>
        </mxCell>
        <mxCell id="mlaz-VWcCHf4LHaq8jaL-60" style="edgeStyle=orthogonalEdgeStyle;rounded=0;orthogonalLoop=1;jettySize=auto;html=1;exitX=1;exitY=0.5;exitDx=0;exitDy=0;entryX=0;entryY=0.5;entryDx=0;entryDy=0;" parent="1" source="15" target="mlaz-VWcCHf4LHaq8jaL-51" edge="1">
          <mxGeometry relative="1" as="geometry"/>
        </mxCell>
        <mxCell id="mlaz-VWcCHf4LHaq8jaL-61" style="edgeStyle=orthogonalEdgeStyle;rounded=0;orthogonalLoop=1;jettySize=auto;html=1;exitX=1;exitY=0.5;exitDx=0;exitDy=0;entryX=0;entryY=0.5;entryDx=0;entryDy=0;" parent="1" source="mlaz-VWcCHf4LHaq8jaL-43" target="mlaz-VWcCHf4LHaq8jaL-52" edge="1">
          <mxGeometry relative="1" as="geometry"/>
        </mxCell>
        <mxCell id="mlaz-VWcCHf4LHaq8jaL-64" style="edgeStyle=orthogonalEdgeStyle;rounded=0;orthogonalLoop=1;jettySize=auto;html=1;exitX=0;exitY=0.5;exitDx=0;exitDy=0;entryX=1;entryY=0.5;entryDx=0;entryDy=0;" parent="1" source="16" target="mlaz-VWcCHf4LHaq8jaL-42" edge="1">
          <mxGeometry relative="1" as="geometry"/>
        </mxCell>
        <mxCell id="mlaz-VWcCHf4LHaq8jaL-68" style="edgeStyle=orthogonalEdgeStyle;rounded=0;orthogonalLoop=1;jettySize=auto;html=1;exitX=1;exitY=0.5;exitDx=0;exitDy=0;entryX=0;entryY=0.5;entryDx=0;entryDy=0;" parent="1" source="10" target="18" edge="1">
          <mxGeometry relative="1" as="geometry"/>
        </mxCell>
        <mxCell id="mlaz-VWcCHf4LHaq8jaL-70" style="edgeStyle=orthogonalEdgeStyle;rounded=0;orthogonalLoop=1;jettySize=auto;html=1;exitX=1;exitY=0.5;exitDx=0;exitDy=0;entryX=0;entryY=0.5;entryDx=0;entryDy=0;" parent="1" source="8" target="mlaz-VWcCHf4LHaq8jaL-69" edge="1">
          <mxGeometry relative="1" as="geometry"/>
        </mxCell>
        <mxCell id="mlaz-VWcCHf4LHaq8jaL-75" style="edgeStyle=orthogonalEdgeStyle;rounded=0;orthogonalLoop=1;jettySize=auto;html=1;exitX=1;exitY=0.5;exitDx=0;exitDy=0;entryX=0;entryY=0.5;entryDx=0;entryDy=0;strokeColor=#000000;" parent="1" source="mlaz-VWcCHf4LHaq8jaL-74" target="mlaz-VWcCHf4LHaq8jaL-73" edge="1">
          <mxGeometry relative="1" as="geometry"/>
        </mxCell>
      </root>
    </mxGraphModel>
  </diagram>
</mxfile>
